<svg xmlns="http://www.w3.org/2000/svg" height="40" viewBox="0 -960 960 960" width="40" fill="#ffffff"><path d="M186.666-80q-27 0-46.833-19.833T120-146.666v-600.001q0-27 19.833-46.833 19.833-19.834 46.833-19.834h56.667V-880h70v66.666h333.334V-880h70v66.666h56.667q27 0 46.833 19.834Q840-773.667 840-746.667v240.001h-66.666v-60.001H186.666v420.001h306.668V-80H186.666Zm0-553.333h586.668v-113.334H186.666v113.334Zm0 0v-113.334 113.334ZM560-80v-123l221-220q9-9 20-13t22-4q12 0 23 4.5t20 13.5l37 37q8.667 9 12.833 20Q920-354 920-343t-4.333 22.5q-4.334 11.5-13.274 20.5L683-80H560Zm300-263-37-37 37 37ZM620-140h38l121-122-18-19-19-18-122 121v38Zm141-141-19-18 37 37-18-19Z"/></svg>