<svg xmlns="http://www.w3.org/2000/svg" height="40" viewBox="0 -960 960 960" width="40" fill="#ffffff"><path d="M160-120v-66.666h640V-120H160Zm154-146.666q-64 0-109-44.667-45-44.666-45-108.666V-840h653.334q27.5 0 47.083 19.583T880-773.334v146.668q0 27.5-19.583 47.083T813.334-560h-90.667v140.001q0 64-45 108.666-45 44.667-109 44.667H314Zm0-506.668h342-429.334H314Zm408.667 146.668h90.667v-146.668h-90.667v146.668ZM568.652-333.333q35.015 0 61.182-26.166Q656-385.666 656-419.999v-353.335H398V-746l71.333 58q1.334 1.333 8.667 17.333V-514q0 9.066-6.667 15.866-6.666 6.8-16.666 6.8h-154q-10 0-16.667-6.8-6.667-6.8-6.667-15.866v-156.667Q277.333-674 286-688l72-58v-27.334H226.666v353.335q0 34.333 26.5 60.5 26.5 26.166 60.834 26.166h254.652ZM358-773.334h40-40Z"/></svg>