<svg xmlns="http://www.w3.org/2000/svg" height="40" viewBox="0 -960 960 960" width="40" fill="#ffffff"><path d="M146.666-160q-27 0-46.833-19.833T80-226.666v-506.668q0-27 19.833-46.833T146.666-800h424.001q-3.333 16.667-4 33.333-.667 16.667 2 33.333H150l330 212.001L629.333-617q11.334 10.333 24.167 18.615 12.833 8.282 26.833 14.385L480-454.667 146.666-670.001v443.335h666.668v-348.001q18.862-4.855 35.264-13.594Q865-597 880-608.667v382.001q0 27-19.833 46.833T813.334-160H146.666Zm0-573.334v506.668-506.668Zm613.256 86.667q-47.255 0-80.255-33.078-33-33.079-33-80.333 0-47.255 33.078-80.255 33.079-33 80.333-33 47.255 0 80.255 33.078 33 33.079 33 80.333 0 47.255-33.078 80.255-33.079 33-80.333 33Z"/></svg>