<svg xmlns="http://www.w3.org/2000/svg" height="40" viewBox="0 -960 960 960" width="40" fill="#ffffff"><path d="M768.667-670.667q14.733 0 24.7-10.5 9.966-10.5 9.966-24.166 0-14.734-9.966-24.7Q783.4-740 768.667-740q-14.733 0-24.7 9.967-9.967 9.966-9.967 24.7 0 13.666 9.967 24.166t24.7 10.5Zm-168 0q14.733 0 24.7-10.5 9.966-10.5 9.966-24.166 0-14.734-9.966-24.7Q615.4-740 600.667-740q-14.734 0-24.7 9.967-9.967 9.966-9.967 24.7 0 13.666 9.967 24.166 9.966 10.5 24.7 10.5ZM579.333-528h209.334q0-33.667-32.167-52.833Q724.333-600 684-600t-72.5 19.167Q579.333-561.667 579.333-528ZM276-80.667q-98.333 0-167.167-70-68.833-70-68.833-166V-588h472v271.333q0 96-68.834 166-68.833 70-167.166 70Zm.106-66.666q69.894 0 119.561-50.667 49.666-50.667 49.666-118.667v-204.666H106.666v204.666q0 68 49.773 118.667t119.667 50.667ZM684-372.667q-31.333 0-61.167-7.5Q593-387.667 566-402.001V-478q24.666 15.667 54.833 27.167 30.167 11.5 63.167 11.5 69.85 0 119.592-47.667 49.742-47.667 49.742-115.667v-210.667H512.666v172.668H446V-880h474v277.333q0 95.333-68.833 162.667Q782.333-372.667 684-372.667ZM192.666-384q14.734 0 24.7-9.967 9.967-9.966 9.967-24.7 0-14.733-9.967-24.7-9.966-9.966-24.7-9.966-14.733 0-24.699 9.966Q158-433.4 158-418.667q0 14.734 9.967 24.7Q177.933-384 192.666-384Zm168.667 0q14.734 0 24.7-9.967 9.967-9.966 9.967-24.7 0-14.733-9.967-24.7-9.966-9.966-24.7-9.966-14.733 0-24.7 9.966-9.966 9.967-9.966 24.7 0 14.734 9.966 24.7Q346.6-384 361.333-384ZM278-235.333q40.333 0 72.5-19.167 32.167-19.166 32.167-52.833H173.333q0 33.667 32.167 52.833 32.167 19.167 72.5 19.167Zm-1.333-102Zm406.666-286Z"/></svg>