<svg xmlns="http://www.w3.org/2000/svg" height="40" viewBox="0 -960 960 960" width="40" fill="#ffffff"><path d="M120-120v-556.667h163.333V-840h393.334v326.667H840V-120H528.667v-163.333h-97.334V-120H120Zm66.666-66.666h96.667v-96.667h-96.667v96.667Zm0-163.334h96.667v-96.667h-96.667V-350Zm0-163.333h96.667V-610h-96.667v96.667ZM350-350h96.667v-96.667H350V-350Zm0-163.333h96.667V-610H350v96.667Zm0-163.334h96.667v-96.667H350v96.667ZM513.333-350H610v-96.667h-96.667V-350Zm0-163.333H610V-610h-96.667v96.667Zm0-163.334H610v-96.667h-96.667v96.667Zm163.334 490.001h96.667v-96.667h-96.667v96.667Zm0-163.334h96.667v-96.667h-96.667V-350Z"/></svg>