<svg xmlns="http://www.w3.org/2000/svg" height="40" viewBox="0 -960 960 960" width="40" fill="#ffffff"><path d="M693.334-80v-120h-120v-66.666h120v-120H760v120h120V-200H760v120h-66.666Zm-506.668-80q-27 0-46.833-19.833T120-226.666v-520.001q0-27 19.833-46.833 19.833-19.834 46.833-19.834h56.667V-880h70v66.666h253.334V-880h70v66.666h56.667q27 0 46.833 19.834Q760-773.667 760-746.667V-464q-16.667-2.333-33.333-2.333-16.667 0-33.333 2.333v-102.667H186.666v340.001h306.668q0 16.666 3 33.333 3 16.666 9 33.333H186.666Zm0-473.333h506.668v-113.334H186.666v113.334Zm0 0v-113.334 113.334Z"/></svg>