<svg xmlns="http://www.w3.org/2000/svg" height="40" viewBox="0 -960 960 960" width="40" fill="#ffffff"><path d="M561.001-389.332q-26-49.667-88.5-75.834Q410-491.332 342.667-491.332q-67.334 0-129.834 26.166-62.501 26.167-89.167 75.834h437.335ZM40-322.666q0-109 92.333-172.166 92.334-63.167 210.334-63.167T553-494.832q92.333 63.166 92.333 172.166H40ZM40-184v-66.666h605.333V-184H40ZM712-40v-66.666h76L844.667-680H452l-8-66.666h203.334V-920H714v173.334h206L853.333-99.333q-3.06 25.574-22.444 42.454Q811.505-40 786-40h-74Zm0-66.666h76-76ZM73.333-40q-14.166 0-23.75-9.583Q40-59.167 40-73.333v-33.333h605.333v33.45q0 14.216-9.583 23.716Q626.167-40 612-40H73.333Zm269.334-349.332Z"/></svg>