<svg xmlns="http://www.w3.org/2000/svg" height="40" viewBox="0 -960 960 960" width="40" fill="#ffffff"><path d="M306.666-284q13.667 0 23.5-9.833 9.833-9.834 9.833-23.5 0-13.667-9.833-23.5t-23.5-9.833q-13.666 0-23.5 9.833-9.833 9.833-9.833 23.5 0 13.666 9.833 23.5Q293-284 306.666-284Zm0-162.667q13.667 0 23.5-9.833t9.833-23.5q0-13.667-9.833-23.5t-23.5-9.833q-13.666 0-23.5 9.833-9.833 9.833-9.833 23.5t9.833 23.5q9.834 9.833 23.5 9.833Zm0-162.667q13.667 0 23.5-9.833t9.833-23.5q0-13.666-9.833-23.5-9.833-9.833-23.5-9.833-13.666 0-23.5 9.833-9.833 9.834-9.833 23.5 0 13.667 9.833 23.5 9.834 9.833 23.5 9.833ZM434.667-284h242.666v-66.666H434.667V-284Zm0-162.667h242.666v-66.666H434.667v66.666Zm0-162.667h242.666V-676H434.667v66.666ZM186.666-120q-27 0-46.833-19.833T120-186.666v-586.668q0-27 19.833-46.833T186.666-840h586.668q27 0 46.833 19.833T840-773.334v586.668q0 27-19.833 46.833T773.334-120H186.666Zm0-66.666h586.668v-586.668H186.666v586.668Zm0-586.668v586.668-586.668Z"/></svg>