<svg xmlns="http://www.w3.org/2000/svg" height="40" viewBox="0 -960 960 960" width="40" fill="#ffffff"><path d="M146.666-306.666v-506.668 506.668ZM80-80v-733.334q0-27.5 19.583-47.083T146.666-880h466.668q27.5 0 47.083 19.583T680-813.334v45.001q-19.333 9.667-36.238 23t-30.428 30v-98.001H146.666v506.668h466.668v-178.001q13.523 16.667 30.428 30 16.905 13.333 36.238 23v125.001q0 27.5-19.583 47.083T613.334-240H240L80-80Zm160-326.667h160v-66.666H240v66.666Zm519.922-80q-47.255 0-80.255-33.078-33-33.079-33-80.333 0-47.255 33.041-80.255 33.04-33 80.241-33 10.384 0 22.051 2.667 11.667 2.666 24.667 7V-920H960v66.666h-86.667V-600q0 47.222-33.078 80.278-33.079 33.055-80.333 33.055Zm-519.922-40h280v-66.666H240v66.666Zm0-120h280v-66.666H240v66.666Z"/></svg>