<svg xmlns="http://www.w3.org/2000/svg" height="40" viewBox="0 -960 960 960" width="40" fill="#ffffff"><path d="M320-206.667h320v-66.666H320v66.666Zm0-120h320v-66.666H320v66.666Zm160-152q64.667-58.667 109-100.833 44.333-42.167 44.333-92.5 0-33.273-24.03-57.303-24.03-24.03-57.303-24.03-23.667 0-40.833 9.167Q494-735 480-717.333 466-735 448.833-744.166q-17.166-9.167-40.833-9.167-33.273 0-57.303 24.03-24.03 24.03-24.03 57.303 0 50.333 42.833 91 42.833 40.666 110.5 102.333ZM733.334-80H226.666q-27 0-46.833-19.833T160-146.666v-666.668q0-27 19.833-46.833T226.666-880h506.668q27 0 46.833 19.833T800-813.334v666.668q0 27-19.833 46.833T733.334-80Zm-506.668-66.666h506.668v-666.668H226.666v666.668Zm0 0v-666.668 666.668Z"/></svg>