<svg xmlns="http://www.w3.org/2000/svg" height="40" viewBox="0 -960 960 960" width="40" fill="#ffffff"><path d="M146.666-240q-27 0-46.833-19.833T80-306.666v-346.668q0-27 19.833-46.833T146.666-720h666.668q27 0 46.833 19.833T880-653.334v346.668q0 27-19.833 46.833T813.334-240H146.666Zm0-66.666h666.668v-346.668H146.666v346.668Zm140.001-44h66.666v-96.001h96.001v-66.666h-96.001v-96.001h-66.666v96.001h-96.001v66.666h96.001v96.001Zm302-12.001q20.333 0 35.166-14.833 14.834-14.833 14.834-35.166 0-20.334-14.834-35.167-14.833-14.833-35.166-14.833T553.5-447.833Q538.667-433 538.667-412.666q0 20.333 14.833 35.166 14.834 14.833 35.167 14.833Zm99.999-135.334q20.334 0 35.167-14.833 14.833-14.833 14.833-35.166t-14.833-35.167Q709-598 688.666-598q-20.333 0-35.166 14.833-14.833 14.834-14.833 35.167 0 20.333 14.833 35.166 14.833 14.833 35.166 14.833Zm-542 191.335v-346.668 346.668Z"/></svg>