<svg xmlns="http://www.w3.org/2000/svg" height="40" viewBox="0 -960 960 960" width="40" fill="#ffffff"><path d="M186.666-120q-27.5 0-47.083-19.583T120-186.666v-586.668q0-27.5 19.583-47.083T186.666-840h392.668v66.666H186.666v586.668h586.668v-392.001H840v392.001q0 27.5-19.583 47.083T773.334-120H186.666Zm506.668-492v-80.667h-80.667v-66.666h80.667V-840H760v80.667h80.667v66.666H760V-612h-66.666ZM240-281.333h480L574-476 449.333-311.333 356.667-434 240-281.333Zm-53.334-492.001v586.668-586.668Z"/></svg>