<svg xmlns="http://www.w3.org/2000/svg" height="40" viewBox="0 -960 960 960" width="40" fill="#ffffff"><path d="M479.333-81.333Q405-81.333 339.5-109.5t-114-76.667q-48.5-48.5-77-114T120-440.489q0-74.822 28.5-140.166Q177-646 225.5-694.833q48.5-48.834 114-77Q405-800 479.333-800q74.334 0 139.834 28.167 65.5 28.166 114.333 77 48.833 48.833 77 114.178 28.167 65.344 28.167 140.166T810.5-300.167q-28.167 65.5-77 114T619.167-109.5q-65.5 28.167-139.834 28.167Zm0-358Zm118 163.333L644-322.667 514.667-452v-188H448v214.667L597.333-276Zm-380-590.667L264-820 98-658.001l-46.667-46.666 166-162Zm524 0 166 162-46.666 46.666-166-161.999 46.666-46.667ZM479.362-148q122.305 0 207.472-85.195Q772-318.39 772-440.695t-85.195-207.472q-85.195-85.167-207.5-85.167t-207.472 85.196q-85.167 85.195-85.167 207.5t85.196 207.472Q357.057-148 479.362-148Z"/></svg>