<svg xmlns="http://www.w3.org/2000/svg" height="40" viewBox="0 -960 960 960" width="40" fill="#ffffff"><path d="m80-80 190.666-533.333 344.667 342L80-80Zm111.333-111.333 303.334-108L298.666-496 191.333-191.333Zm374-258L528.666-486l234.667-234.667q32-32 79.667-32.333 47.667-.333 79.667 31.667L942-702l-36.667 36.666L884.667-686q-17.334-17.334-41-17.667Q820-704 802-686L565.333-449.333ZM406-606l-36.667-36.666 28-28q20-20 19-46.334-1-26.333-19-44.334L370-788.667l36.666-36.666 26 26q34 34 33.667 83.666Q466-666 432-632l-26 26Zm80.666 78L450-564.666 599.333-714q17.334-17.333 17-44-.333-26.667-17.666-44l-62-62 36.666-36.667 63.333 63.334q31.334 32 32 79.333.667 47.333-31.333 79.333L486.666-528Zm158.667 159.334-36.667-36.667 52.667-52.666q34-34 81.666-34.667 47.667-.667 81.667 33.333L879.999-404l-36.666 36.667-56-56q-20-20-43.667-20t-43.667 20l-54.666 54.667Zm-454 177.333Z"/></svg>