<svg xmlns="http://www.w3.org/2000/svg" height="40" viewBox="0 -960 960 960" width="40" fill="#ffffff"><path d="M338.666-120h-152q-27 0-46.833-19.833T120-186.666V-480q0-75 28.5-140.5t77-114q48.5-48.5 114-77T480-840q75 0 140.5 28.5t114 77q48.5 48.5 77 114T840-480v293.334q0 27-19.833 46.833T773.334-120h-152v-304h152v-56q0-122.572-85.381-207.953T480-773.334q-122.572 0-207.953 85.381T186.666-480v56h152v304ZM272-357.333h-85.334v170.667H272v-170.667Zm416 0v170.667h85.334v-170.667H688Zm-416 0h-85.334H272Zm416 0h85.334H688Z"/></svg>