<svg xmlns="http://www.w3.org/2000/svg" height="40" viewBox="0 -960 960 960" width="40" fill="#ffffff"><path d="M80-80v-733.334q0-27 19.833-46.833T146.666-880h426.001q-4 16-5.333 33Q566-830 568-813.334H146.666v575.002l64.667-68.334h602.001v-340.667q18.862-5 35.264-13.5 16.402-8.5 31.402-20.5v374.667q0 27-19.833 46.833T813.334-240H240L80-80Zm66.666-733.334v506.668-506.668Zm613.256 94.001q-47.255 0-80.255-33.079-33-33.078-33-80.333 0-47.255 33.078-80.255 33.079-33 80.333-33 47.255 0 80.255 33.079 33 33.078 33 80.333 0 47.255-33.078 80.255-33.079 33-80.333 33Z"/></svg>